<svg width="166" height="32" viewBox="0 0 166 32" fill="none" xmlns="http://www.w3.org/2000/svg">
<path d="M14.976 7.248L9.312 18.168V24H5.952V18.168L0.264 7.248H4.056L7.656 14.904L11.232 7.248H14.976ZM29.4658 10.704V24H26.0818V22.32C25.6498 22.896 25.0818 23.352 24.3778 23.688C23.6898 24.008 22.9378 24.168 22.1218 24.168C21.0818 24.168 20.1618 23.952 19.3618 23.52C18.5618 23.072 17.9298 22.424 17.4658 21.576C17.0178 20.712 16.7938 19.688 16.7938 18.504V10.704H20.1538V18.024C20.1538 19.08 20.4178 19.896 20.9458 20.472C21.4738 21.032 22.1938 21.312 23.1058 21.312C24.0338 21.312 24.7618 21.032 25.2898 20.472C25.8178 19.896 26.0818 19.08 26.0818 18.024V10.704H29.4658ZM40.125 24L37.389 19.872L34.965 24H31.365L35.709 17.328L31.317 10.704H35.109L37.821 14.808L40.269 10.704H43.869L39.501 17.328L43.917 24H40.125ZM47.4459 9.12C46.8539 9.12 46.3579 8.936 45.9579 8.568C45.5739 8.184 45.3819 7.712 45.3819 7.152C45.3819 6.592 45.5739 6.128 45.9579 5.76C46.3579 5.376 46.8539 5.184 47.4459 5.184C48.0379 5.184 48.5259 5.376 48.9099 5.76C49.3099 6.128 49.5099 6.592 49.5099 7.152C49.5099 7.712 49.3099 8.184 48.9099 8.568C48.5259 8.936 48.0379 9.12 47.4459 9.12ZM49.1019 10.704V24H45.7419V10.704H49.1019ZM59.7896 10.512C61.3736 10.512 62.6536 11.016 63.6296 12.024C64.6056 13.016 65.0936 14.408 65.0936 16.2V24H61.7336V16.656C61.7336 15.6 61.4696 14.792 60.9416 14.232C60.4136 13.656 59.6936 13.368 58.7816 13.368C57.8536 13.368 57.1176 13.656 56.5736 14.232C56.0456 14.792 55.7816 15.6 55.7816 16.656V24H52.4216V10.704H55.7816V12.36C56.2296 11.784 56.7976 11.336 57.4856 11.016C58.1896 10.68 58.9576 10.512 59.7896 10.512Z" fill="white"/>
</svg>
